<?xml version="1.0" standalone="no"?>
<!DOCTYPE svg PUBLIC "-//W3C//DTD SVG 20010904//EN"
 "http://www.w3.org/TR/2001/REC-SVG-20010904/DTD/svg10.dtd">
<svg version="1.0" xmlns="http://www.w3.org/2000/svg"
 width="512.000000pt" height="512.000000pt" viewBox="0 0 512.000000 512.000000"
 preserveAspectRatio="xMidYMid meet">

<g transform="translate(0.000000,512.000000) scale(0.100000,-0.100000)"
fill="#000000" stroke="none">
<path d="M683 4785 c-134 -37 -249 -130 -307 -247 -103 -205 -56 -373 104
-373 94 0 145 50 160 155 14 102 58 146 160 160 105 15 155 66 155 160 0 63
-16 95 -68 134 -35 26 -133 31 -204 11z"/>
<path d="M1375 4786 c-97 -43 -124 -171 -54 -251 45 -51 78 -57 301 -53 215 3
223 5 272 72 29 39 29 133 0 172 -50 67 -55 69 -282 71 -157 2 -214 0 -237
-11z"/>
<path d="M2335 4786 c-97 -43 -124 -171 -54 -251 45 -51 78 -57 301 -53 215 3
223 5 272 72 29 39 29 133 0 172 -50 67 -55 69 -282 71 -157 2 -214 0 -237
-11z"/>
<path d="M3295 4786 c-97 -43 -124 -171 -54 -251 45 -51 78 -57 301 -53 215 3
223 5 272 72 29 39 29 133 0 172 -50 67 -55 69 -282 71 -157 2 -214 0 -237
-11z"/>
<path d="M4255 4786 c-67 -29 -105 -106 -90 -183 9 -50 69 -109 118 -117 20
-3 54 -9 74 -12 50 -8 109 -67 117 -117 3 -20 9 -54 12 -74 8 -49 67 -109 117
-118 109 -21 197 54 197 168 0 153 -109 331 -249 406 -105 56 -230 76 -296 47z"/>
<path d="M2975 3986 c-94 -41 -124 -169 -58 -247 46 -55 69 -59 315 -59 l223
0 -423 -423 -423 -423 -57 20 c-56 21 -75 21 -927 24 -604 2 -885 -1 -922 -8
-175 -37 -322 -179 -368 -357 -23 -87 -22 -1741 0 -1828 45 -172 179 -305 352
-350 86 -22 1740 -22 1826 0 178 46 320 193 357 368 7 37 10 320 8 927 -3 864
-3 876 -24 926 l-21 52 423 423 423 423 3 -236 c3 -221 4 -238 24 -264 39 -53
71 -69 134 -69 63 0 95 16 134 69 21 27 21 38 21 486 0 448 0 459 -21 486 -11
15 -33 37 -48 48 -27 20 -40 21 -474 23 -356 2 -453 0 -477 -11z"/>
<path d="M415 3826 c-41 -18 -83 -69 -90 -109 -4 -18 -5 -118 -3 -224 3 -210
5 -218 72 -267 39 -29 133 -29 172 0 68 51 69 53 69 294 0 205 -1 220 -21 246
-11 15 -32 37 -46 47 -33 25 -113 32 -153 13z"/>
<path d="M4575 3826 c-41 -18 -83 -69 -90 -109 -4 -18 -5 -118 -3 -224 3 -210
5 -218 72 -267 39 -29 133 -29 172 0 68 51 69 53 69 294 0 205 -1 220 -21 246
-11 15 -32 37 -46 47 -33 25 -113 32 -153 13z"/>
<path d="M4575 2866 c-41 -18 -83 -69 -90 -109 -4 -18 -5 -118 -3 -224 3 -210
5 -218 72 -267 39 -29 133 -29 172 0 68 51 69 53 69 294 0 205 -1 220 -21 246
-11 15 -32 37 -46 47 -33 25 -113 32 -153 13z"/>
<path d="M4575 1906 c-41 -18 -83 -69 -90 -109 -4 -18 -5 -118 -3 -224 3 -210
5 -218 72 -267 39 -29 133 -29 172 0 68 51 69 53 69 294 0 205 -1 220 -21 246
-11 15 -32 37 -46 47 -33 25 -113 32 -153 13z"/>
<path d="M4575 946 c-43 -19 -83 -70 -90 -114 -3 -20 -8 -53 -11 -72 -8 -47
-68 -107 -117 -114 -20 -3 -54 -9 -74 -12 -49 -8 -109 -67 -118 -117 -21 -109
54 -197 168 -197 160 0 337 112 411 262 99 197 59 363 -91 375 -28 2 -61 -3
-78 -11z"/>
<path d="M3295 626 c-97 -43 -124 -171 -54 -251 45 -51 78 -57 301 -53 215 3
223 5 272 72 29 39 29 133 0 172 -50 67 -55 69 -282 71 -157 2 -214 0 -237
-11z"/>
</g>
</svg>
