<?xml version="1.0" standalone="no"?>
<!DOCTYPE svg PUBLIC "-//W3C//DTD SVG 20010904//EN"
 "http://www.w3.org/TR/2001/REC-SVG-20010904/DTD/svg10.dtd">
<svg version="1.0" xmlns="http://www.w3.org/2000/svg"
 width="512.000000pt" height="512.000000pt" viewBox="0 0 512.000000 512.000000"
 preserveAspectRatio="xMidYMid meet">

<g transform="translate(0.000000,512.000000) scale(0.100000,-0.100000)"
fill="#000000" stroke="none">
<path d="M2285 4675 c-972 -128 -1736 -906 -1845 -1880 -13 -117 -13 -367 0
-475 81 -669 465 -1260 1037 -1597 336 -197 798 -322 1000 -270 224 58 379
243 359 429 -9 85 -41 150 -118 242 -116 136 -153 239 -124 339 27 94 116 162
244 187 91 18 348 7 587 -26 169 -24 235 -28 430 -28 256 0 317 10 453 76 100
48 216 167 270 279 77 155 112 346 112 602 0 176 -13 301 -46 457 -191 891
-943 1571 -1846 1669 -128 14 -388 12 -513 -4z m-110 -759 c68 -31 115 -74
151 -138 26 -48 29 -62 29 -148 0 -79 -4 -103 -23 -142 -51 -104 -150 -170
-265 -176 -83 -5 -143 11 -202 53 -188 133 -181 419 13 532 98 57 199 64 297
19z m1052 -1 c201 -91 246 -365 86 -516 -68 -65 -116 -84 -218 -84 -75 0 -98
4 -139 24 -158 78 -223 260 -152 419 74 162 261 232 423 157z m-1764 -940
c104 -27 168 -82 216 -185 72 -157 -12 -358 -177 -420 -78 -30 -185 -24 -258
13 -68 34 -136 111 -157 177 -59 183 39 367 222 416 62 17 87 17 154 -1z
m2404 -20 c201 -91 246 -365 86 -516 -68 -65 -116 -84 -218 -84 -75 0 -98 4
-139 24 -158 78 -223 260 -152 419 74 162 261 232 423 157z"/>
</g>
</svg>
