<?xml version="1.0" standalone="no"?>
<!DOCTYPE svg PUBLIC "-//W3C//DTD SVG 20010904//EN"
 "http://www.w3.org/TR/2001/REC-SVG-20010904/DTD/svg10.dtd">
<svg version="1.0" xmlns="http://www.w3.org/2000/svg"
 width="512.000000pt" height="512.000000pt" viewBox="0 0 512.000000 512.000000"
 preserveAspectRatio="xMidYMid meet">

<g transform="translate(0.000000,512.000000) scale(0.100000,-0.100000)"
fill="#000000" stroke="none">
<path d="M159 4961 l-29 -29 0 -2372 0 -2372 29 -29 29 -29 2372 0 2372 0 29
29 29 29 0 2372 0 2372 -29 29 -29 29 -2372 0 -2372 0 -29 -29z m1765 -222
c53 -24 57 -54 54 -345 l-3 -266 -33 -29 -32 -29 -276 0 -276 0 -29 29 -29 29
0 285 0 285 31 26 31 26 268 0 c180 0 277 -4 294 -11z m947 -18 l29 -29 0
-281 0 -280 -24 -28 -24 -28 -292 0 -292 0 -24 28 -24 28 0 280 0 281 29 29
29 29 282 0 282 0 29 -29z m1850 0 l29 -29 0 -281 0 -280 -24 -28 -24 -28
-286 -3 -287 -3 -29 30 -30 29 0 285 0 285 31 26 31 26 280 0 280 0 29 -29z
m-3696 -926 l25 -24 0 -281 c0 -182 -4 -288 -11 -302 -23 -42 -63 -48 -330
-48 -273 0 -305 5 -328 56 -7 17 -11 114 -11 294 l0 268 26 31 26 31 289 0
290 0 24 -25z m2770 0 l25 -24 0 -281 c0 -182 -4 -288 -11 -302 -23 -42 -63
-48 -324 -48 -193 0 -253 3 -281 15 -59 24 -64 50 -64 330 0 258 6 300 47 324
11 7 118 10 301 11 l283 0 24 -25z m929 -6 l26 -31 0 -268 c0 -180 -4 -277
-11 -294 -23 -51 -55 -56 -328 -56 -267 0 -307 6 -330 48 -7 14 -11 120 -11
302 l0 281 25 24 24 25 290 0 289 0 26 -31z m-3700 -915 l26 -27 0 -283 0
-283 -24 -28 -24 -28 -269 -3 c-147 -2 -278 0 -291 3 -13 3 -35 18 -48 32
l-24 26 0 279 0 280 29 29 29 29 285 0 284 0 27 -26z m921 2 c13 -13 27 -39
30 -57 3 -19 5 -148 3 -286 l-3 -253 -28 -27 -27 -28 -286 0 -286 0 -24 28
-24 28 0 283 0 283 26 27 27 26 284 0 284 0 24 -24z m926 -5 l29 -29 0 -277
c0 -170 -4 -284 -10 -296 -24 -45 -53 -49 -330 -49 -277 0 -306 4 -330 49 -6
12 -10 126 -10 296 l0 277 29 29 29 29 282 0 282 0 29 -29z m923 3 l26 -27 0
-283 0 -283 -24 -28 -24 -28 -286 0 -286 0 -27 28 -28 27 -3 253 c-2 138 0
267 3 286 3 18 17 44 30 57 l24 24 284 0 284 0 27 -26z m-2799 -908 c18 -8 38
-23 44 -34 7 -14 11 -120 11 -302 l0 -281 -25 -24 -24 -25 -290 0 -289 0 -26
31 -26 31 0 268 c0 179 4 277 11 294 23 51 52 56 327 56 196 0 260 -3 287 -14z
m2770 0 c18 -8 38 -23 44 -34 7 -14 11 -120 11 -302 l0 -281 -25 -24 -24 -25
-281 0 c-182 0 -288 4 -302 11 -42 23 -48 63 -48 324 0 277 5 305 62 330 48
21 514 21 563 1z m930 -1 c18 -9 37 -27 44 -41 7 -17 11 -114 11 -294 l0 -268
-26 -31 -26 -31 -289 0 -290 0 -24 25 -25 24 0 281 c0 182 4 288 11 301 22 43
59 48 327 49 209 0 260 -3 287 -15z m-3670 -940 l25 -24 0 -281 c0 -182 -4
-288 -11 -302 -23 -42 -63 -48 -330 -48 -273 0 -305 5 -328 56 -7 17 -11 114
-11 294 l0 268 26 31 26 31 289 0 290 0 24 -25z m907 14 c42 -23 48 -63 48
-324 0 -280 -5 -306 -64 -330 -28 -12 -88 -15 -281 -15 -261 0 -301 6 -324 48
-7 14 -11 120 -11 302 l0 281 25 24 24 25 281 0 c182 0 288 -4 302 -11z m942
-15 l26 -27 0 -279 c0 -181 -4 -286 -11 -300 -23 -42 -63 -48 -329 -48 -266 0
-306 6 -329 48 -7 14 -11 119 -11 300 l0 279 26 27 27 26 287 0 287 0 27 -26z
m1850 -5 l26 -31 0 -268 c0 -180 -4 -277 -11 -294 -23 -51 -55 -56 -328 -56
-267 0 -307 6 -330 48 -7 14 -11 120 -11 302 l0 281 25 24 24 25 290 0 289 0
26 -31z"/>
</g>
</svg>
