<?xml version="1.0" standalone="no"?>
<!DOCTYPE svg PUBLIC "-//W3C//DTD SVG 20010904//EN"
 "http://www.w3.org/TR/2001/REC-SVG-20010904/DTD/svg10.dtd">
<svg version="1.0" xmlns="http://www.w3.org/2000/svg"
 width="512.000000pt" height="512.000000pt" viewBox="0 0 512.000000 512.000000"
 preserveAspectRatio="xMidYMid meet">

<g transform="translate(0.000000,512.000000) scale(0.100000,-0.100000)"
fill="#000000" stroke="none">
<path d="M1625 4676 c-16 -8 -370 -208 -785 -445 -541 -309 -764 -442 -787
-468 -58 -64 -68 -149 -28 -229 14 -28 37 -59 53 -71 40 -29 1498 -862 1551
-886 123 -54 276 37 288 171 3 33 -7 95 -36 210 -43 174 -43 195 1 226 20 14
100 16 764 16 612 0 756 -3 827 -15 576 -100 925 -683 745 -1245 -107 -333
-396 -584 -745 -645 -71 -13 -229 -15 -952 -15 -938 0 -916 1 -1020 -55 -28
-16 -73 -52 -100 -80 -201 -213 -140 -547 124 -676 l70 -34 965 0 c868 0 974
2 1055 17 360 68 677 229 936 476 170 161 288 324 389 535 204 426 235 893 89
1342 -42 127 -166 373 -246 485 -37 52 -126 154 -198 225 -234 234 -478 379
-790 470 -207 60 -181 58 -1060 62 -569 2 -818 7 -838 15 -15 6 -35 24 -43 39
-13 26 -11 41 26 188 22 88 40 176 40 196 0 73 -49 149 -122 186 -44 22 -128
25 -173 5z"/>
</g>
</svg>
